HIERARCHY
ROOT Hips
{
	OFFSET 0.000000 0.000000 0.000000
	CHANNELS 6 Xposition Yposition Zposition Zrotation Yrotation Xrotation 
	JOINT LHipJoint
	{
		OFFSET 0.000000 0.000000 0.000000
		CHANNELS 3 Zrotation Yrotation Xrotation
		JOINT LeftUpLeg
		{
			OFFSET 1.363060 -1.794630 0.839290
			CHANNELS 3 Zrotation Yrotation Xrotation
			JOINT LeftLeg
			{
				OFFSET 2.448110 -6.726130 0.000000
				CHANNELS 3 Zrotation Yrotation Xrotation
				JOINT LeftFoot
				{
					OFFSET 2.562200 -7.039590 0.000000
					CHANNELS 3 Zrotation Yrotation Xrotation
					JOINT LeftToeBase
					{
						OFFSET 0.157640 -0.433110 2.322550
						CHANNELS 3 Zrotation Yrotation Xrotation
						End Site
						{
							OFFSET 0.000000 0.000000 0.000000
						}
					}
				}
			}
		}
	}
	JOINT RHipJoint
	{
		OFFSET 0.000000 0.000000 0.000000
		CHANNELS 3 Zrotation Yrotation Xrotation
		JOINT RightUpLeg
		{
			OFFSET -1.305520 -1.794630 0.839290
			CHANNELS 3 Zrotation Yrotation Xrotation
			JOINT RightLeg
			{
				OFFSET -2.542530 -6.985550 0.000000
				CHANNELS 3 Zrotation Yrotation Xrotation
				JOINT RightFoot
				{
					OFFSET -2.568260 -7.056230 0.000000
					CHANNELS 3 Zrotation Yrotation Xrotation
					JOINT RightToeBase
					{
						OFFSET -0.164730 -0.452590 2.363150
						CHANNELS 3 Zrotation Yrotation Xrotation
						End Site
						{
							OFFSET 0.000000 0.000000 0.000000
						}
					}
				}
			}
		}
	}
	JOINT LowerBack
	{
		OFFSET 0.000000 0.000000 0.000000
		CHANNELS 3 Zrotation Yrotation Xrotation
		JOINT Spine
		{
			OFFSET 0.028270 2.035590 -0.193380
			CHANNELS 3 Zrotation Yrotation Xrotation
			JOINT Spine1
			{
				OFFSET 0.056720 2.048850 -0.042750
				CHANNELS 3 Zrotation Yrotation Xrotation
				JOINT Neck
				{
					OFFSET 0.000000 0.000000 0.000000
					CHANNELS 3 Zrotation Yrotation Xrotation
					JOINT Neck1
					{
						OFFSET -0.054170 1.746240 0.172020
						CHANNELS 3 Zrotation Yrotation Xrotation
						JOINT Head
						{
							OFFSET 0.104070 1.761360 -0.123970
							CHANNELS 3 Zrotation Yrotation Xrotation
							End Site
							{
								OFFSET 0.000000 0.000000 0.000000
							}
						}
					}
				}
				JOINT LeftShoulder
				{
					OFFSET 0.000000 0.000000 0.000000
					CHANNELS 3 Zrotation Yrotation Xrotation
					JOINT LeftArm
					{
						OFFSET 3.362410 1.200890 -0.311210
						CHANNELS 3 Zrotation Yrotation Xrotation
						JOINT LeftForeArm
						{
							OFFSET 4.983000 -0.000000 -0.000000
							CHANNELS 3 Zrotation Yrotation Xrotation
							JOINT LeftHand
							{
								OFFSET 3.483560 -0.000000 -0.000000
								CHANNELS 3 Zrotation Yrotation Xrotation
								JOINT LeftFingerBase
								{
									OFFSET 0.000000 0.000000 0.000000
									CHANNELS 3 Zrotation Yrotation Xrotation
									JOINT LeftHandIndex1
									{
										OFFSET 0.715260 -0.000000 -0.000000
										CHANNELS 3 Zrotation Yrotation Xrotation
										End Site
										{
											OFFSET 0.000000 0.000000 0.000000
										}
									}
								}
								JOINT LThumb
								{
									OFFSET 0.000000 0.000000 0.000000
									CHANNELS 3 Zrotation Yrotation Xrotation
									End Site
									{
										OFFSET 0.000000 0.000000 0.000000
									}
								}
							}
						}
					}
				}
				JOINT RightShoulder
				{
					OFFSET 0.000000 0.000000 0.000000
					CHANNELS 3 Zrotation Yrotation Xrotation
					JOINT RightArm
					{
						OFFSET -3.136600 1.374050 -0.404650
						CHANNELS 3 Zrotation Yrotation Xrotation
						JOINT RightForeArm
						{
							OFFSET -5.241900 -0.000000 -0.000000
							CHANNELS 3 Zrotation Yrotation Xrotation
							JOINT RightHand
							{
								OFFSET -3.444170 -0.000000 -0.000000
								CHANNELS 3 Zrotation Yrotation Xrotation
								JOINT RightFingerBase
								{
									OFFSET 0.000000 0.000000 0.000000
									CHANNELS 3 Zrotation Yrotation Xrotation
									JOINT RightHandIndex1
									{
										OFFSET -0.622530 -0.000000 -0.000000
										CHANNELS 3 Zrotation Yrotation Xrotation
										End Site
										{
											OFFSET 0.000000 0.000000 0.000000
										}
									}
								}
								JOINT RThumb
								{
									OFFSET 0.000000 0.000000 0.000000
									CHANNELS 3 Zrotation Yrotation Xrotation
									End Site
									{
										OFFSET 0.000000 0.000000 0.000000
									}
								}
							}
						}
					}
				}
			}
		}
	}
}
MOTION
Frames: 11
Frame Time: 0.008333
-0.456598 17.344271 -0.697747 -9.800243 -70.494167 19.720057 -10.205957 1.743462 5.621347 -6.637351 -13.549909 -15.286743 -1.512870 -0.297594 14.425358 1.142462 5.150219 -9.637471 -0.240701 0.000000 -29.421799 9.669741 -1.357311 0.084678 13.707952 -4.174541 -31.922927 -0.979440 -3.260383 55.554399 -3.238107 -18.465454 7.745508 -5.411800 0.000000 -64.245999 -2.564537 -3.027655 -5.977574 -1.368163 -2.970262 -3.843877 -7.290147 -3.008638 0.851649 12.197413 -11.679697 -8.110018 -3.009740 -0.232159 -0.089660 0.000000 0.000000 0.000000 -0.284188 0.851916 1.701537 -56.620909 -9.194510 15.673372 -3.771202 -20.866531 0.001502 2.871781 -0.787234 -0.020970 -0.142739 0.042222 0.000000 0.000000 0.000000 0.000000 0.000000 0.000000 0.000000 15.844729 -10.068022 1.380724 78.305893 -10.941224 -11.298743 3.720120 11.717643 0.016923 -0.773346 10.150983 -0.076875 0.094686 -0.045245 -0.000000 0.000000 0.000000 0.000000 0.000000 0.000000 0.000000 
-0.447826 17.365561 -0.674951 -11.128709 -70.266636 20.848815 -10.340483 1.711547 5.573463 -6.080647 -13.500515 -14.964727 -1.433958 -0.290094 14.114680 1.135726 5.213528 -9.357944 -0.208999 -0.000000 -29.787300 9.711653 -1.201797 -0.021333 14.101493 -4.165352 -34.223704 -1.272874 -3.475068 59.587546 -3.036986 -17.344227 11.341039 -5.872700 0.000000 -65.724900 -2.223381 -3.149022 -5.805839 -1.298322 -3.116707 -3.812043 -7.306352 -3.148055 0.826225 12.214360 -11.720764 -8.074383 -2.997049 -0.231070 -0.080881 0.000000 0.000000 0.000000 -0.319722 0.462133 1.738542 -56.055689 -9.675791 15.434081 -3.751764 -20.876723 0.001700 3.294492 -1.076389 -0.032853 -0.144234 0.046997 0.000000 0.000000 0.000000 0.000000 0.000000 0.000000 0.000000 15.776714 -10.235698 1.406877 78.334681 -11.410368 -11.379468 3.752428 11.457620 0.016901 -0.616264 10.100223 -0.062491 0.094357 -0.042683 -0.000000 0.000000 0.000000 0.000000 0.000000 0.000000 0.000000 
-0.436343 17.389057 -0.650396 -12.633667 -70.061936 22.137508 -10.493974 1.672154 5.521059 -5.449909 -13.461935 -14.624510 -1.339929 -0.278991 13.796383 1.139940 5.350441 -9.067547 -0.176500 -0.000000 -30.157000 9.721664 -1.032672 -0.129392 14.558060 -4.092455 -36.537721 -1.541326 -3.673778 63.553300 -2.846759 -15.923309 14.785417 -6.024000 -0.000000 -66.799400 -1.796154 -3.260767 -5.626062 -1.210675 -3.260902 -3.779511 -7.319707 -3.285073 0.800475 12.214145 -11.749968 -8.032561 -2.984820 -0.230154 -0.070066 0.000000 0.000000 0.000000 -0.381638 0.083899 1.775269 -55.534240 -10.150548 15.183358 -3.734832 -20.821986 0.001841 3.672665 -1.350249 -0.045838 -0.145569 0.051671 0.000000 0.000000 0.000000 0.000000 0.000000 0.000000 0.000000 15.686000 -10.388162 1.431055 78.319097 -11.868217 -11.452981 3.791399 11.218707 0.016853 -0.433450 10.016521 -0.045907 0.094153 -0.040056 -0.000000 0.000000 0.000000 0.000000 0.000000 0.000000 0.000000 
-0.421997 17.414413 -0.624047 -14.308399 -69.885118 23.578576 -10.666638 1.626233 5.461626 -4.754556 -13.420212 -14.272712 -1.232049 -0.262801 13.485657 1.154422 5.554930 -8.768899 -0.142300 -0.000000 -30.536300 9.700988 -0.853012 -0.241856 15.071293 -3.954650 -38.872565 -1.789845 -3.866383 67.471200 -2.669041 -14.243838 17.941458 -5.846100 -0.000000 -67.575100 -1.284188 -3.359307 -5.434998 -1.105515 -3.398951 -3.746404 -7.329293 -3.416050 0.773167 12.192282 -11.762075 -7.983324 -2.972517 -0.229384 -0.056914 0.000000 0.000000 0.000000 -0.466976 -0.284058 1.812170 -55.063412 -10.620680 14.931585 -3.720906 -20.701259 0.001919 3.996382 -1.598358 -0.058927 -0.146757 0.056196 0.000000 0.000000 0.000000 0.000000 0.000000 0.000000 0.000000 15.564678 -10.517536 1.454753 78.266322 -12.311639 -11.529532 3.836371 10.999305 0.016760 -0.234854 9.891158 -0.028023 0.094120 -0.037388 -0.000000 0.000000 0.000000 0.000000 0.000000 0.000000 0.000000 
-0.404543 17.441266 -0.595945 -16.140978 -69.739327 25.156546 -10.858390 1.574439 5.391359 -4.007677 -13.359609 -13.914436 -1.112243 -0.239705 13.201345 1.177892 5.817045 -8.464056 -0.105800 0.000000 -30.933901 9.652181 -0.664912 -0.362805 15.632178 -3.758429 -41.232244 -2.028727 -4.061547 71.360217 -2.504503 -12.382025 20.699320 -5.367800 -0.000000 -68.175900 -0.692148 -3.442342 -5.225595 -0.983859 -3.527906 -3.711962 -7.334570 -3.538274 0.743230 12.145715 -11.750771 -7.926081 -2.959799 -0.228730 -0.041382 0.000000 0.000000 0.000000 -0.572433 -0.639126 1.850321 -54.646459 -11.094945 14.694533 -3.710541 -20.513616 0.001930 4.257697 -1.809933 -0.071020 -0.147847 0.060554 0.000000 0.000000 0.000000 0.000000 0.000000 0.000000 0.000000 15.407742 -10.615073 1.479055 78.184340 -12.738636 -11.618733 3.886123 10.801393 0.016608 -0.032938 9.717809 -0.010340 0.094296 -0.034710 -0.000000 0.000000 0.000000 0.000000 0.000000 0.000000 0.000000 
-0.383877 17.469267 -0.566384 -18.102186 -69.626595 26.837814 -11.066967 1.517116 5.306193 -3.229522 -13.273146 -13.545273 -0.982881 -0.208257 12.957296 1.209901 6.133385 -8.151400 -0.065800 -0.000000 -31.354100 9.579702 -0.468820 -0.497786 16.224391 -3.516515 -43.615141 -2.271292 -4.265927 75.237083 -2.353751 -10.441716 22.981632 -4.659400 0.000000 -68.704900 -0.033484 -3.508751 -4.987266 -0.848643 -3.645133 -3.675390 -7.335410 -3.649515 0.706204 12.073381 -11.710122 -7.857346 -2.947037 -0.228256 -0.022661 0.000000 0.000000 0.000000 -0.687656 -1.002383 1.890632 -54.287788 -11.551477 14.463061 -3.703462 -20.275093 0.001872 4.449843 -1.974501 -0.081016 -0.148804 0.064713 0.000000 0.000000 0.000000 0.000000 0.000000 0.000000 0.000000 15.214194 -10.673059 1.507022 78.082642 -13.151019 -11.724150 3.938604 10.630007 0.016382 0.157916 9.492331 0.005744 0.094696 -0.032061 -0.000000 0.000000 0.000000 0.000000 0.000000 0.000000 0.000000 
-0.359836 17.498088 -0.535503 -20.176010 -69.543055 28.600530 -11.292360 1.453944 5.200563 -2.433388 -13.144188 -13.167656 -0.846614 -0.166388 12.776731 1.247677 6.484681 -7.830886 -0.021500 -0.000000 -31.813900 9.485913 -0.264766 -0.652423 16.839470 -3.243596 -46.014486 -2.531082 -4.482596 79.108999 -2.218173 -8.547156 24.749720 -3.823200 0.000000 -69.245900 0.685159 -3.559138 -4.707636 -0.701355 -3.750181 -3.634093 -7.332168 -3.749429 0.663249 11.975676 -11.637124 -7.779877 -2.934201 -0.227895 -0.001754 0.000000 0.000000 0.000000 -0.812381 -1.357647 1.934913 -53.983364 -12.018817 14.268469 -3.700310 -19.981418 0.001736 4.571305 -2.083628 -0.087815 -0.149742 0.068705 0.000000 0.000000 0.000000 0.000000 0.000000 0.000000 0.000000 14.986197 -10.687359 1.538099 77.965809 -13.544366 -11.833786 3.991888 10.491402 0.016079 0.322726 9.217214 0.018826 0.095340 -0.029456 -0.000000 0.000000 0.000000 0.000000 0.000000 0.000000 0.000000 
-0.332179 17.527575 -0.503804 -22.329069 -69.485336 30.402289 -11.531387 1.384144 5.069895 -1.639057 -12.971290 -12.773208 -0.706095 -0.112781 12.672986 1.290114 6.864562 -7.496133 0.028299 0.000000 -32.322200 9.374749 -0.051243 -0.832709 17.460489 -2.956931 -48.419009 -2.820157 -4.712433 82.977469 -2.099388 -6.820609 25.993647 -2.968900 -0.000000 -69.791500 1.446558 -3.595125 -4.373228 -0.545948 -3.842527 -3.586850 -7.326132 -3.837900 0.608051 11.855892 -11.525343 -7.689085 -2.922857 -0.227812 0.022385 0.000000 0.000000 0.000000 -0.934682 -1.735530 1.984453 -53.732689 -12.463822 14.093100 -3.700136 -19.658969 0.001520 4.621058 -2.131422 -0.090918 -0.150585 0.072521 0.000000 0.000000 0.000000 0.000000 0.000000 0.000000 0.000000 14.731987 -10.650842 1.575382 77.841039 -13.924863 -11.946063 4.043790 10.393862 0.015698 0.453842 8.897714 0.028309 0.096180 -0.026939 -0.000000 0.000000 0.000000 0.000000 0.000000 0.000000 0.000000 
-0.300860 17.557612 -0.471672 -24.533429 -69.446891 32.209776 -11.781673 1.306640 4.909891 -0.859986 -12.751088 -12.358810 -0.563847 -0.046247 12.661583 1.335063 7.259624 -7.140560 0.084800 0.000000 -32.895100 9.248410 0.173183 -1.043346 18.075308 -2.671362 -50.815841 -3.147439 -4.953487 86.832591 -1.999411 -5.371195 26.734342 -2.199200 -0.000000 -70.313201 2.237571 -3.619489 -3.971961 -0.385551 -3.923012 -3.531684 -7.319188 -3.915973 0.538282 11.719458 -11.371502 -7.584505 -2.914445 -0.228100 0.049628 0.000000 0.000000 0.000000 -1.048547 -2.143497 2.040843 -53.528679 -12.882292 13.943144 -3.702544 -19.322947 0.001228 4.602989 -2.116269 -0.090123 -0.151348 0.076172 0.000000 0.000000 0.000000 0.000000 0.000000 0.000000 0.000000 14.463760 -10.560436 1.619592 77.710488 -14.293341 -12.044163 4.092544 10.344058 0.015244 0.547800 8.544710 0.034092 0.097154 -0.024533 -0.000000 0.000000 0.000000 0.000000 0.000000 0.000000 0.000000 
-0.265687 17.588191 -0.439272 -26.779504 -69.418504 34.006436 -12.043570 1.219863 4.715675 -0.097609 -12.470455 -11.927966 -0.421991 0.034748 12.762352 1.378412 7.643372 -6.757037 0.148600 0.000000 -33.560400 9.106141 0.409131 -1.287717 18.681659 -2.397486 -53.189967 -3.517703 -5.201355 90.652405 -1.919967 -4.280065 27.016897 -1.593100 0.000000 -70.763400 3.054113 -3.635415 -3.493110 -0.221282 -3.993445 -3.465883 -7.312930 -3.985435 0.455937 11.571657 -11.182133 -7.470724 -2.909449 -0.228702 0.078464 0.000000 0.000000 0.000000 -1.157073 -2.569066 2.105315 -53.360484 -13.297231 13.842798 -3.707339 -18.978777 0.000863 4.524632 -2.040031 -0.085731 -0.152097 0.079701 0.000000 0.000000 0.000000 0.000000 0.000000 0.000000 0.000000 14.191958 -10.423632 1.669501 77.569549 -14.637943 -12.076681 4.136800 10.342251 0.014740 0.600247 8.174827 0.036375 0.098213 -0.022212 -0.000000 0.000000 0.000000 0.000000 0.000000 0.000000 0.000000 
-0.226851 17.619421 -0.407149 -29.031961 -69.394771 35.757318 -12.312365 1.122891 4.486267 0.638014 -12.137632 -11.479401 -0.282411 0.130111 12.981950 1.418940 8.009250 -6.332768 0.221400 0.000000 -34.332799 8.949899 0.658129 -1.566255 19.263956 -2.142293 -55.534290 -3.932414 -5.451802 94.411909 -1.861313 -3.581528 26.895336 -1.190800 -0.000000 -71.024400 3.879549 -3.646340 -2.932329 -0.057274 -4.054860 -3.390119 -7.310427 -4.047672 0.353560 11.420898 -10.946466 -7.340664 -2.910822 -0.229927 0.110676 0.000000 0.000000 0.000000 -1.248338 -3.049144 2.179009 -53.221719 -13.660872 13.764807 -3.713018 -18.662551 0.000441 4.394510 -1.910433 -0.078241 -0.152709 0.083079 0.000000 0.000000 0.000000 0.000000 0.000000 0.000000 0.000000 13.934577 -10.230606 1.727783 77.421504 -14.970397 -12.052842 4.176393 10.390434 0.014197 0.629817 7.802422 0.036559 0.099197 -0.020015 -0.000000 0.000000 0.000000 0.000000 0.000000 0.000000 0.000000 
